<?xml version="1.0" standalone="no"?>
<!DOCTYPE svg PUBLIC "-//W3C//DTD SVG 20010904//EN"
 "http://www.w3.org/TR/2001/REC-SVG-20010904/DTD/svg10.dtd">
<svg version="1.0" xmlns="http://www.w3.org/2000/svg"
 width="100.000000pt" height="100.000000pt" viewBox="0 0 100.000000 100.000000"
 preserveAspectRatio="xMidYMid meet">

<g transform="translate(0.000000,100.000000) scale(0.100000,-0.100000)"
fill="#000000" stroke="none">
<path d="M53 873 c-10 -3 -13 -70 -13 -283 0 -240 2 -281 16 -294 13 -14 53
-16 285 -16 l269 0 -6 40 c-4 25 -2 45 5 54 8 10 8 21 1 40 -13 35 -13 128 1
186 12 51 34 80 60 80 11 0 25 14 35 33 45 89 102 111 148 56 l26 -31 0 65 c0
50 -4 66 -16 71 -19 7 -793 7 -811 -1z m465 -314 c-14 -3 -22 -12 -20 -22 1
-9 3 -24 5 -33 4 -31 -18 -25 -31 8 -11 31 -12 31 -32 13 -20 -18 -20 -18 -20
71 l0 88 60 -59 c57 -56 59 -60 38 -66z"/>
<path d="M778 743 c-9 -10 -23 -33 -33 -52 -17 -34 -17 -34 12 -62 l29 -29 38
39 c34 35 37 41 26 62 -15 29 -41 59 -50 59 -4 0 -14 -8 -22 -17z"/>
<path d="M858 611 c-56 -51 -101 -123 -111 -178 l-6 -33 100 0 c118 0 115 -4
113 120 -1 84 -14 140 -33 140 -5 0 -34 -22 -63 -49z"/>
<path d="M660 616 c-14 -38 -21 -137 -12 -176 5 -24 14 -36 28 -38 17 -2 22 5
32 50 7 29 21 66 32 83 l19 30 -36 37 c-43 45 -50 46 -63 14z"/>
<path d="M645 350 c-3 -5 3 -45 15 -89 11 -44 20 -84 20 -90 0 -8 -97 -11
-320 -11 -313 0 -320 0 -320 -20 0 -20 7 -20 460 -20 453 0 460 0 460 20 0 13
-7 20 -20 20 -25 0 -25 0 0 101 10 45 17 86 14 91 -7 11 -301 10 -309 -2z"/>
<path d="M280 220 c0 -19 6 -20 176 -20 162 0 175 1 172 18 -3 15 -21 17 -176
20 -167 2 -172 2 -172 -18z"/>
</g>
</svg>
